HIERARCHY
ROOT HipCenter
{
    OFFSET 0.0 0.0 -0.0
    CHANNELS 6 Xposition Yposition Zposition Zrotation Xrotation Yrotation
    JOINT Spine
    {
        OFFSET 0.0 26.69333839416504 0.0
        CHANNELS 3 Zrotation Xrotation Yrotation
        JOINT ShoulderCenter
        {
            OFFSET 0.0 19.995403289794922 0.0
            CHANNELS 3 Zrotation Xrotation Yrotation
            JOINT LeftShoulder
            {
                OFFSET 13.676183700561523 0.0 0.0
                CHANNELS 3 Zrotation Xrotation Yrotation
                JOINT LeftElbow
                {
                    OFFSET 21.310272216796875 0.0 0.0
                    CHANNELS 3 Zrotation Xrotation Yrotation
                    JOINT LeftWrist
                    {
                        OFFSET 21.296852111816406 0.0 0.0
                        CHANNELS 3 Zrotation Xrotation Yrotation
                        JOINT LeftHand
                        {
                            OFFSET 6.351758003234863 0.0 0.0
                            CHANNELS 3 Zrotation Xrotation Yrotation
                            End Site
                            {
                                OFFSET 2.540703296661377 0.0 0.0
                            }
                        }
                    }
                }
            }
            JOINT RightShoulder
            {
                OFFSET -13.676183700561523 0.0 0.0
                CHANNELS 3 Zrotation Xrotation Yrotation
                JOINT RightElbow
                {
                    OFFSET -21.310272216796875 0.0 0.0
                    CHANNELS 3 Zrotation Xrotation Yrotation
                    JOINT RightWrist
                    {
                        OFFSET -21.296852111816406 0.0 0.0
                        CHANNELS 3 Zrotation Xrotation Yrotation
                        JOINT RightHand
                        {
                            OFFSET -6.351758003234863 0.0 0.0
                            CHANNELS 3 Zrotation Xrotation Yrotation
                            End Site
                            {
                                OFFSET -2.540703296661377 0.0 0.0
                            }
                        }
                    }
                }
            }
            End Site
            {
                OFFSET 0.0 7.998161315917969 0.0
            }
        }
    }
    JOINT LeftHip
    {
        OFFSET 6.467995643615723 0.0 0.0
        CHANNELS 3 Zrotation Xrotation Yrotation
        JOINT LeftKnee
        {
            OFFSET 0.0 -29.37379264831543 0.0
            CHANNELS 3 Zrotation Xrotation Yrotation
            JOINT LeftAnkle
            {
                OFFSET 0.0 -33.33027648925781 0.0
                CHANNELS 3 Zrotation Xrotation Yrotation
                JOINT LeftFoot
                {
                    OFFSET 0.0 -9.480118751525879 0.0
                    CHANNELS 3 Zrotation Xrotation Yrotation
                    End Site
                    {
                        OFFSET 0.0 0.0 3.7920479774475098
                    }
                }
            }
        }
    }
    JOINT RightHip
    {
        OFFSET -6.467995643615723 0.0 0.0
        CHANNELS 3 Zrotation Xrotation Yrotation
        JOINT RightKnee
        {
            OFFSET 0.0 -29.37379264831543 0.0
            CHANNELS 3 Zrotation Xrotation Yrotation
            JOINT RightAnkle
            {
                OFFSET 0.0 -33.33027648925781 0.0
                CHANNELS 3 Zrotation Xrotation Yrotation
                JOINT RightFoot
                {
                    OFFSET 0.0 -9.480118751525879 0.0
                    CHANNELS 3 Zrotation Xrotation Yrotation
                    End Site
                    {
                        OFFSET 0.0 0.0 3.7920479774475098
                    }
                }
            }
        }
    }
}
MOTION
Frames: 9
Frame Time: 0.03333333333333333
46.56842041015625 15.348519325256348 -387.072998046875 6.497237273693869 33.506391879176576 -177.9083151811788 0.5353968750625997 -1.888488516712498 -0.17774776271834286 2.859919893902454e-07 -1.6062274729277502e-06 -29.107592960098383 -79.27425399123396 -40.88526364836983 -22.75644377840388 -2.8643053733718256e-06 9.042142287601323e-07 109.17611602542945 -179.99999986250944 -5.383712739755477 -151.1509269370653 0.0 0.0 0.0 72.47221390123907 -56.44620222745719 33.41913532105724 -2.309469335010862e-06 3.712629547577993e-06 -113.17060386007464 179.99999792313167 -40.19934079764314 126.24705420133297 0.0 0.0 1.987846675914698e-15 10.237267090105053 15.650549471199184 24.40927315885119 -9.899298799119736 -3.637914508448793 -0.8185474598146737 76.65937868641426 39.740913324865 -52.654761000700134 -2.3854160110976376e-15 6.620859447075238e-32 -3.1805546814635168e-15 7.073219576161962 30.168525416260096 -32.9652878278815 6.13047755779906 -14.868446193660468 1.8437129105958465 33.370450877086675 17.34557172106441 -14.17950600089629 5.9635400277440935e-15 -2.0690185772110117e-31 -3.975693351829395e-15
46.49216079711914 15.345170021057129 -386.9403991699219 5.981123043111058 33.33828593874401 -177.01220361776421 0.6682280253212574 -1.84550693348365 -0.17252540400991478 -2.6200436186733657e-08 -3.6958351499834952e-06 -28.99798102281543 -106.62198947590127 -65.21728637560871 -45.32278630011225 -8.445954073253169e-07 -1.8280807865274117e-06 91.06020578568952 -179.99970939066924 89.30720716652044 -110.63735022390291 3.1805546814635168e-15 1.7655625192200634e-31 6.3611093629270335e-15 75.58640519667138 -56.89182620583778 34.82449508746736 -2.5158033340806694e-06 2.3763191266099664e-06 -111.48891146155093 -179.99999632202923 -30.729444967672407 131.36618049687195 0.0 0.0 -3.1805546814635164e-15 10.439305381931161 16.2008217418055 23.913433047347393 -10.674413087133459 -4.9167918909678425 -1.1323777957873233 77.49393747789352 40.408983920167465 -53.722998248527055 -7.951386703658792e-16 1.1034765745125397e-32 -1.5902773407317584e-15 7.173859377873339 30.541661125509762 -32.61692272099049 5.864147962972437 -16.268185829122622 1.8709852940494631 38.57251651163105 -18.812314727196355 17.84740627755091 -3.975693351829396e-16 -5.517382872562698e-33 1.5902773407317584e-15
46.18254852294922 15.380020141601562 -386.0856018066406 3.763773099729162 32.56679877416568 -174.2181149774285 1.241883488683518 -2.189330750797982 -0.15934234115620885 7.640025567522962e-07 -1.304814224441138e-07 -29.80687198263428 -110.15435974501548 -64.41482629474191 -47.43538656309033 -5.94714472860226e-07 1.023439211476295e-06 91.51019214674527 2.1000328693764242e-05 82.41272834059178 74.75175598065815 1.5902773407317584e-15 8.827812596100317e-32 6.3611093629270335e-15 75.5637458997133 -57.94302624299265 35.525239757802495 -1.2529991042615918e-06 4.316329811838922e-06 -109.77338566183295 -179.99999637330046 -19.214221193531667 139.55665792202726 0.0 0.0 0.0 9.737250486952675 15.91606615201137 22.610873059980523 -13.299965672804598 -5.900908566733909 -1.5969492839113892 80.76825100088305 41.05420019308151 -55.4651214521779 2.3854160110976376e-15 -3.310429723537619e-32 -1.5902773407317584e-15 5.14274702525189 32.672572689602525 -30.73708826897796 9.258067725728726 -20.643639414719953 2.6817309653240904 34.20983887107637 28.07350945260204 -22.454223640567104 -7.156248033292914e-15 -1.5902773407317584e-15 -9.931289170612858e-32
46.04229736328125 15.27449893951416 -385.4414978027344 0.7628601959753628 32.21931667604664 -173.44658946787402 2.281065732476501 -1.803382358696878 -0.026456942566597585 -2.9366281995149694e-07 2.7241386925533824e-07 -28.98697799722053 -116.14414558305023 -63.964771354876646 -51.485737992628316 -1.8256242299376667e-07 2.2991570568760128e-07 92.28423962191492 -3.5522924047578826e-06 84.32745201126451 75.20669320191732 -3.1805546814635168e-15 0.0 0.0 76.34964330578644 -58.39336262775626 38.745011653116805 -3.656114252736684e-06 8.956207885000908e-07 -108.77878853502422 -179.99999851011714 -13.481297629734964 142.78371990539935 6.3611093629270335e-15 -3.531125038440127e-31 -6.3611093629270335e-15 7.163736575026663 16.14313104195951 22.6907458304042 -13.796763857265832 -6.727499180806897 -1.8998810583820571 82.46218807386012 42.308115648051505 -57.46834015427371 7.951386703658792e-16 -1.1034765745125397e-32 -1.5902773407317584e-15 2.6974136070731594 31.17470176179344 -30.31811602902165 7.3763347690988095 -19.822728904808532 2.1471601064053085 30.68403992622344 20.0679035479918 -14.305536730724828 -4.969616689786746e-16 9.483001812217137e-33 -2.186631343506168e-15
45.830841064453125 15.782449722290039 -384.5736083984375 -0.7010497975321711 31.404507844342536 176.77639187314765 1.3362875595354466 -1.8671270806778455 0.12116292828203061 3.2786715161650946e-07 3.331227780543516e-06 -18.644627311537572 -115.05770393929178 -64.1534147025756 -51.29629689969299 -5.444567347459261e-07 2.3594378425583907e-07 93.41750432076527 1.8498045377418045e-05 76.06777640959344 75.20635191690587 0.0 0.0 0.0 77.78491744317516 -58.25298008457146 36.71383415286493 -1.2245858792122989e-06 2.6290094017615917e-06 -105.48012403536377 179.99999964226382 -16.107713473466102 143.63521941022094 0.0 0.0 1.5902773407317584e-15 2.7654506435104094 17.801497374332964 28.77400512693081 -14.575207318208816 -10.051671905882795 -2.8570332542840324 83.87268185137485 47.74673683263906 -61.5743979300129 -1.1927080055488188e-15 -6.3611093629270335e-15 -1.5902773407317584e-15 -4.640057236743212 25.443457410918676 -31.550470289146208 9.050576940608144 -13.978864139889707 2.2235142289236123 25.703097645555722 25.777751414791712 -16.676916259496053 -2.435112177995505e-15 1.5524105012136373e-31 -7.305336533986514e-15
45.580101013183594 15.728020668029785 -384.4255065917969 -1.3954722199901393 30.967809585927988 -178.18529727428995 0.8940287926870509 -1.7425464272122566 0.015113620332258278 -1.1396488728019292e-07 -1.4049371752531326e-06 -23.371084011057686 -116.36511305365507 -63.879769544668896 -52.783129657794944 -1.2400346267941287e-07 -3.513779173178495e-08 93.64096497225042 3.7932418888755236e-06 78.20863515054226 78.71999304506659 3.1805546814635168e-15 0.0 0.0 80.96793455092494 -59.136387047557825 39.03866023886412 -4.565116252916093e-07 -1.8184554708940215e-06 -103.52171076447804 -179.99999842294466 -70.2374256048322 167.73071278591675 1.1034765745125397e-32 7.951386703658792e-16 -1.5902773407317584e-15 3.0903608957864295 16.27572382184043 26.968181103039534 -14.87648274457138 -9.110755289675383 -2.9790827521088414 85.58484274240577 45.04655526114942 -59.817586802309755 -7.951386703658791e-16 1.1034765745125397e-32 -1.5902773407317582e-15 -3.087745925069734 26.395487578501438 -32.44322302838424 8.44758483118928 -15.877091765810022 1.8760478391825783 32.162775918067936 22.604254084635926 -17.131861990261974 -1.9878466759146985e-16 -1.5902773407317584e-15 -1.987846675914698e-15
45.487327575683594 16.066650390625 -384.0802001953125 -1.2570043416922143 30.612096865155525 177.38720534805506 0.5259071875278137 -1.7275350697534064 0.014971938735225485 6.886083115141855e-07 1.7724453164635788e-06 -18.979825305259272 -109.44547888678694 -66.17500053842785 -14.039561693059587 -1.9135582771622834e-06 3.5661917335016195e-06 61.09741264730569 5.71017198861746e-05 89.04121756301949 80.34056999488845 0.0 0.0 0.0 81.4010924669107 -59.000324695578634 38.270012755194884 -1.2856312449456944e-06 -7.195254088314071e-07 -103.12641477881978 -179.9999758434164 -72.36333211396077 169.8512108105119 0.0 0.0 -7.951386703658794e-16 2.8159597652526323 18.359482305326694 27.897551380847283 -17.201362528536716 -12.677327344463237 -4.50743677804626 87.6568138875098 49.362114049319935 -62.4452988453224 7.951386703658792e-16 0.0 0.0 -4.248853518402115 25.350695397427238 -30.457066051762123 8.168457655640495 -16.23033722500643 1.8233118989383075 35.032943677000134 24.29780112403183 -19.855661573937994 -7.851994369863057e-15 3.9756933518293955e-16 5.963540027744094e-16
45.259090423583984 16.249309539794922 -383.537109375 -1.7698526654822855 29.895014120659305 175.7646648009167 0.2750733878364353 -2.1573887392220596 0.04942405943574455 -1.139855395810346e-06 -2.8172921844058095e-07 -17.43942423503913 -113.27459278022458 -65.16105184573051 -24.380620460417664 -1.9424834682875886e-06 1.0731379188628704e-06 67.77570325032602 -7.67207242661095e-06 82.9273328878171 46.9710672270296 3.531125038440127e-31 6.3611093629270335e-15 -6.3611093629270335e-15 80.10717662356173 -57.805443273194484 37.231986455356534 1.7532637040672445e-06 -1.8087718077339158e-06 -104.21216582799755 -179.999994230688 -73.68165460866321 171.18020987827853 2.2069531490250793e-32 3.1805546814635176e-15 -7.951386703658794e-16 2.1865771167862667 18.369482337736937 27.714874882787992 -17.62369014693087 -14.593212326146073 -4.940992812412214 44.56223785972586 24.733141011224426 -11.66169061708584 -1.987846675914698e-16 -1.5902773407317582e-15 -2.385416011097637e-15 -4.89432425295646 24.271042562092617 -28.99401536037345 7.442856630196173 -17.353182761164025 1.67545340091293 -59.86305867953375 73.05859099259386 53.30777619478894 0.0 0.0 1.5902773407317582e-15
45.105979919433594 16.36134910583496 -383.2947998046875 -2.4365672039358435 29.29407022991302 175.39282166960763 0.5558070886360864 -1.5099831545730176 0.05489027907116958 6.138125389682104e-07 -1.3145518257074214e-07 -16.824226511245847 -115.99678974985363 -64.93778872579992 -27.43492476128271 6.8418921862457115e-06 -7.70393887071679e-07 68.12373342814908 4.6398367648519584e-06 82.12602757935144 60.43655822376558 6.3611093629270335e-15 -6.361109362927032e-15 6.3611093629270335e-15 81.29446705081408 -57.74602595765624 39.039857468430746 2.8623814640619215e-06 1.9649232909329645e-06 -104.43025969590238 -179.9999928451322 -75.17672584107888 166.25178228062927 -3.1805546814635168e-15 2.2069531490250793e-32 -7.951386703658792e-16 1.5659432458544604 17.647247685277975 27.63686605160455 -16.820029582493476 -16.3134891899814 -5.262593941794372 36.41570930257477 36.8348465540037 -11.673563526247532 -1.1927080055488188e-15 -1.0345092886055059e-32 9.93923337957349e-16 -4.486147030557206 23.671275896680484 -28.70539930935495 5.740793127563476 -18.930197333052035 1.4442324811152707 32.343525324413314 25.483293689436536 -17.687891562636878 -3.975693351829396e-16 3.975693351829396e-16 -1.5902773407317584e-15
